<?xml version="1.0" encoding="utf-8" standalone="no"?>
<!DOCTYPE svg PUBLIC "-//W3C//DTD SVG 1.1//EN"
  "http://www.w3.org/Graphics/SVG/1.1/DTD/svg11.dtd">
<svg xmlns:xlink="http://www.w3.org/1999/xlink" width="465.364844pt" height="281.708566pt" viewBox="0 0 465.364844 281.708566" xmlns="http://www.w3.org/2000/svg" version="1.1">
 <metadata>
  <rdf:RDF xmlns:dc="http://purl.org/dc/elements/1.1/" xmlns:cc="http://creativecommons.org/ns#" xmlns:rdf="http://www.w3.org/1999/02/22-rdf-syntax-ns#">
   <cc:Work>
    <dc:type rdf:resource="http://purl.org/dc/dcmitype/StillImage"/>
    <dc:date>2026-08-15T21:48:53.603256</dc:date>
    <dc:format>image/svg+xml</dc:format>
    <dc:creator>
     <cc:Agent>
      <dc:title>Matplotlib v3.7.2, https://matplotlib.org/</dc:title>
     </cc:Agent>
    </dc:creator>
   </cc:Work>
  </rdf:RDF>
 </metadata>
 <defs>
  <style type="text/css">*{stroke-linejoin: round; stroke-linecap: butt}</style>
 </defs>
 <g id="figure_1">
  <g id="patch_1">
   <path d="M 0 281.708566
L 465.364844 281.708566
L 465.364844 0
L 0 0
z
" style="fill: #ffffff"/>
  </g>
  <g id="axes_1">
   <g id="patch_2">
    <path d="M 56.404844 243.262972
L 458.164844 243.262972
L 458.164844 21.502972
L 56.404844 21.502972
z
" style="fill: #ffffff"/>
   </g>
   <g id="matplotlib.axis_1">
    <g id="xtick_1">
     <g id="line2d_1">
      <defs>
       <path id="m538213bb26" d="M 0 0
L 0 3.5
" style="stroke: #000000; stroke-width: 0.8"/>
      </defs>
      <g>
       <use xlink:href="#m538213bb26" x="98.524844" y="243.262972" style="stroke: #000000; stroke-width: 0.8"/>
      </g>
     </g>
     <g id="text_1">
      <text style="font: 7px 'Microsoft YaHei', 'Arial', 'DejaVu Sans', sans-serif" transform="translate(84.524844 255.858597)">原始行为</text>
      <text style="font: 7px 'Microsoft YaHei', 'Arial', 'DejaVu Sans', sans-serif" transform="translate(67.024844 264.313503)">（数据集历史轨迹）</text>
     </g>
    </g>
    <g id="xtick_2">
     <g id="line2d_2">
      <g>
       <use xlink:href="#m538213bb26" x="228.124844" y="243.262972" style="stroke: #000000; stroke-width: 0.8"/>
      </g>
     </g>
     <g id="text_2">
      <text style="font: 7px 'Microsoft YaHei', 'Arial', 'DejaVu Sans', sans-serif; text-anchor: middle" x="228.124844" y="255.858597" transform="rotate(-0 228.124844 255.858597)">BC</text>
     </g>
    </g>
    <g id="xtick_3">
     <g id="line2d_3">
      <g>
       <use xlink:href="#m538213bb26" x="292.924844" y="243.262972" style="stroke: #000000; stroke-width: 0.8"/>
      </g>
     </g>
     <g id="text_3">
      <text style="font: 7px 'Microsoft YaHei', 'Arial', 'DejaVu Sans', sans-serif" transform="translate(283.347969 255.858597)">M100</text>
      <text style="font: 7px 'Microsoft YaHei', 'Arial', 'DejaVu Sans', sans-serif" transform="translate(273.071641 264.313503)">GRU + CEM</text>
     </g>
    </g>
    <g id="xtick_4">
     <g id="line2d_4">
      <g>
       <use xlink:href="#m538213bb26" x="357.724844" y="243.262972" style="stroke: #000000; stroke-width: 0.8"/>
      </g>
     </g>
     <g id="text_4">
      <text style="font: 7px 'Microsoft YaHei', 'Arial', 'DejaVu Sans', sans-serif" transform="translate(346.095547 255.858597)">M1000</text>
      <text style="font: 7px 'Microsoft YaHei', 'Arial', 'DejaVu Sans', sans-serif" transform="translate(332.502969 264.313503)">Transformer-2L</text>
      <text style="font: 7px 'Microsoft YaHei', 'Arial', 'DejaVu Sans', sans-serif" transform="translate(345.361641 272.768409)">+ MPPI</text>
     </g>
    </g>
    <g id="xtick_5">
     <g id="line2d_5">
      <g>
       <use xlink:href="#m538213bb26" x="422.524844" y="243.262972" style="stroke: #000000; stroke-width: 0.8"/>
      </g>
     </g>
     <g id="text_5">
      <text style="font: 7px 'Microsoft YaHei', 'Arial', 'DejaVu Sans', sans-serif" transform="translate(408.843125 255.858597)">M10000</text>
      <text style="font: 7px 'Microsoft YaHei', 'Arial', 'DejaVu Sans', sans-serif" transform="translate(397.302969 264.313503)">Transformer-2L</text>
      <text style="font: 7px 'Microsoft YaHei', 'Arial', 'DejaVu Sans', sans-serif" transform="translate(410.161641 272.768409)">+ MPPI</text>
     </g>
    </g>
   </g>
   <g id="matplotlib.axis_2">
    <g id="ytick_1">
     <g id="line2d_6">
      <path d="M 56.404844 225.420213
L 458.164844 225.420213
" clip-path="url(#p7ba2018061)" style="fill: none; stroke: #b0b0b0; stroke-opacity: 0.22; stroke-width: 0.8; stroke-linecap: square"/>
     </g>
     <g id="line2d_7">
      <defs>
       <path id="m6bb2fbad32" d="M 0 0
L -3.5 0
" style="stroke: #000000; stroke-width: 0.8"/>
      </defs>
      <g>
       <use xlink:href="#m6bb2fbad32" x="56.404844" y="225.420213" style="stroke: #000000; stroke-width: 0.8"/>
      </g>
     </g>
     <g id="text_6">
      <text style="font: 7px 'Microsoft YaHei', 'Arial', 'DejaVu Sans', sans-serif; text-anchor: end" x="49.404844" y="228.218026" transform="rotate(-0 49.404844 228.218026)">−290000</text>
     </g>
    </g>
    <g id="ytick_2">
     <g id="line2d_8">
      <path d="M 56.404844 199.930558
L 458.164844 199.930558
" clip-path="url(#p7ba2018061)" style="fill: none; stroke: #b0b0b0; stroke-opacity: 0.22; stroke-width: 0.8; stroke-linecap: square"/>
     </g>
     <g id="line2d_9">
      <g>
       <use xlink:href="#m6bb2fbad32" x="56.404844" y="199.930558" style="stroke: #000000; stroke-width: 0.8"/>
      </g>
     </g>
     <g id="text_7">
      <text style="font: 7px 'Microsoft YaHei', 'Arial', 'DejaVu Sans', sans-serif; text-anchor: end" x="49.404844" y="202.728371" transform="rotate(-0 49.404844 202.728371)">−280000</text>
     </g>
    </g>
    <g id="ytick_3">
     <g id="line2d_10">
      <path d="M 56.404844 174.440903
L 458.164844 174.440903
" clip-path="url(#p7ba2018061)" style="fill: none; stroke: #b0b0b0; stroke-opacity: 0.22; stroke-width: 0.8; stroke-linecap: square"/>
     </g>
     <g id="line2d_11">
      <g>
       <use xlink:href="#m6bb2fbad32" x="56.404844" y="174.440903" style="stroke: #000000; stroke-width: 0.8"/>
      </g>
     </g>
     <g id="text_8">
      <text style="font: 7px 'Microsoft YaHei', 'Arial', 'DejaVu Sans', sans-serif; text-anchor: end" x="49.404844" y="177.238715" transform="rotate(-0 49.404844 177.238715)">−270000</text>
     </g>
    </g>
    <g id="ytick_4">
     <g id="line2d_12">
      <path d="M 56.404844 148.951248
L 458.164844 148.951248
" clip-path="url(#p7ba2018061)" style="fill: none; stroke: #b0b0b0; stroke-opacity: 0.22; stroke-width: 0.8; stroke-linecap: square"/>
     </g>
     <g id="line2d_13">
      <g>
       <use xlink:href="#m6bb2fbad32" x="56.404844" y="148.951248" style="stroke: #000000; stroke-width: 0.8"/>
      </g>
     </g>
     <g id="text_9">
      <text style="font: 7px 'Microsoft YaHei', 'Arial', 'DejaVu Sans', sans-serif; text-anchor: end" x="49.404844" y="151.74906" transform="rotate(-0 49.404844 151.74906)">−260000</text>
     </g>
    </g>
    <g id="ytick_5">
     <g id="line2d_14">
      <path d="M 56.404844 123.461593
L 458.164844 123.461593
" clip-path="url(#p7ba2018061)" style="fill: none; stroke: #b0b0b0; stroke-opacity: 0.22; stroke-width: 0.8; stroke-linecap: square"/>
     </g>
     <g id="line2d_15">
      <g>
       <use xlink:href="#m6bb2fbad32" x="56.404844" y="123.461593" style="stroke: #000000; stroke-width: 0.8"/>
      </g>
     </g>
     <g id="text_10">
      <text style="font: 7px 'Microsoft YaHei', 'Arial', 'DejaVu Sans', sans-serif; text-anchor: end" x="49.404844" y="126.259405" transform="rotate(-0 49.404844 126.259405)">−250000</text>
     </g>
    </g>
    <g id="ytick_6">
     <g id="line2d_16">
      <path d="M 56.404844 97.971937
L 458.164844 97.971937
" clip-path="url(#p7ba2018061)" style="fill: none; stroke: #b0b0b0; stroke-opacity: 0.22; stroke-width: 0.8; stroke-linecap: square"/>
     </g>
     <g id="line2d_17">
      <g>
       <use xlink:href="#m6bb2fbad32" x="56.404844" y="97.971937" style="stroke: #000000; stroke-width: 0.8"/>
      </g>
     </g>
     <g id="text_11">
      <text style="font: 7px 'Microsoft YaHei', 'Arial', 'DejaVu Sans', sans-serif; text-anchor: end" x="49.404844" y="100.76975" transform="rotate(-0 49.404844 100.76975)">−240000</text>
     </g>
    </g>
    <g id="ytick_7">
     <g id="line2d_18">
      <path d="M 56.404844 72.482282
L 458.164844 72.482282
" clip-path="url(#p7ba2018061)" style="fill: none; stroke: #b0b0b0; stroke-opacity: 0.22; stroke-width: 0.8; stroke-linecap: square"/>
     </g>
     <g id="line2d_19">
      <g>
       <use xlink:href="#m6bb2fbad32" x="56.404844" y="72.482282" style="stroke: #000000; stroke-width: 0.8"/>
      </g>
     </g>
     <g id="text_12">
      <text style="font: 7px 'Microsoft YaHei', 'Arial', 'DejaVu Sans', sans-serif; text-anchor: end" x="49.404844" y="75.280095" transform="rotate(-0 49.404844 75.280095)">−230000</text>
     </g>
    </g>
    <g id="ytick_8">
     <g id="line2d_20">
      <path d="M 56.404844 46.992627
L 458.164844 46.992627
" clip-path="url(#p7ba2018061)" style="fill: none; stroke: #b0b0b0; stroke-opacity: 0.22; stroke-width: 0.8; stroke-linecap: square"/>
     </g>
     <g id="line2d_21">
      <g>
       <use xlink:href="#m6bb2fbad32" x="56.404844" y="46.992627" style="stroke: #000000; stroke-width: 0.8"/>
      </g>
     </g>
     <g id="text_13">
      <text style="font: 7px 'Microsoft YaHei', 'Arial', 'DejaVu Sans', sans-serif; text-anchor: end" x="49.404844" y="49.79044" transform="rotate(-0 49.404844 49.79044)">−220000</text>
     </g>
    </g>
    <g id="ytick_9">
     <g id="line2d_22">
      <path d="M 56.404844 21.502972
L 458.164844 21.502972
" clip-path="url(#p7ba2018061)" style="fill: none; stroke: #b0b0b0; stroke-opacity: 0.22; stroke-width: 0.8; stroke-linecap: square"/>
     </g>
     <g id="line2d_23">
      <g>
       <use xlink:href="#m6bb2fbad32" x="56.404844" y="21.502972" style="stroke: #000000; stroke-width: 0.8"/>
      </g>
     </g>
     <g id="text_14">
      <text style="font: 7px 'Microsoft YaHei', 'Arial', 'DejaVu Sans', sans-serif; text-anchor: end" x="49.404844" y="24.300784" transform="rotate(-0 49.404844 24.300784)">−210000</text>
     </g>
    </g>
    <g id="text_15">
     <text style="font: 8px 'Microsoft YaHei', 'Arial', 'DejaVu Sans', sans-serif; text-anchor: middle" x="13.595" y="132.382972" transform="rotate(-90 13.595 132.382972)">1000步累计奖励（越高越好）</text>
    </g>
   </g>
   <g id="patch_3">
    <path d="M 82.972844 208.607874
L 114.076844 208.607874
L 114.076844 206.351721
L 82.972844 206.351721
L 82.972844 208.607874
z
" clip-path="url(#p7ba2018061)" style="fill: #f3f4f5; stroke: #6c757d; stroke-width: 1.2; stroke-linejoin: miter"/>
   </g>
   <g id="line2d_24">
    <path d="M 98.524844 208.607874
L 98.524844 211.913006
" clip-path="url(#p7ba2018061)" style="fill: none; stroke: #6c757d; stroke-linecap: square"/>
   </g>
   <g id="line2d_25">
    <path d="M 98.524844 206.351721
L 98.524844 203.039977
" clip-path="url(#p7ba2018061)" style="fill: none; stroke: #6c757d; stroke-linecap: square"/>
   </g>
   <g id="line2d_26">
    <path d="M 90.748844 211.913006
L 106.300844 211.913006
" clip-path="url(#p7ba2018061)" style="fill: none; stroke: #6c757d; stroke-linecap: square"/>
   </g>
   <g id="line2d_27">
    <path d="M 90.748844 203.039977
L 106.300844 203.039977
" clip-path="url(#p7ba2018061)" style="fill: none; stroke: #6c757d; stroke-linecap: square"/>
   </g>
   <g id="line2d_28">
    <path d="M 173.044844 243.262972
L 173.044844 21.502972
" clip-path="url(#p7ba2018061)" style="fill: none; stroke-dasharray: 3.7,1.6; stroke-dashoffset: 0; stroke: #aab0b5"/>
   </g>
   <g id="line2d_29">
    <path d="M 82.972844 207.26664
L 114.076844 207.26664
" clip-path="url(#p7ba2018061)" style="fill: none; stroke: #333333; stroke-width: 1.2; stroke-linecap: square"/>
   </g>
   <g id="patch_4">
    <path d="M 56.404844 243.262972
L 56.404844 21.502972
" style="fill: none; stroke: #000000; stroke-width: 0.8; stroke-linejoin: miter; stroke-linecap: square"/>
   </g>
   <g id="patch_5">
    <path d="M 56.404844 243.262972
L 458.164844 243.262972
" style="fill: none; stroke: #000000; stroke-width: 0.8; stroke-linejoin: miter; stroke-linecap: square"/>
   </g>
   <g id="PathCollection_1">
    <defs>
     <path id="m0b5f1a5893" d="M 0 2.236068
C 0.593012 2.236068 1.161816 2.000462 1.581139 1.581139
C 2.000462 1.161816 2.236068 0.593012 2.236068 0
C 2.236068 -0.593012 2.000462 -1.161816 1.581139 -1.581139
C 1.161816 -2.000462 0.593012 -2.236068 0 -2.236068
C -0.593012 -2.236068 -1.161816 -2.000462 -1.581139 -1.581139
C -2.000462 -1.161816 -2.236068 -0.593012 -2.236068 0
C -2.236068 0.593012 -2.000462 1.161816 -1.581139 1.581139
C -1.161816 2.000462 -0.593012 2.236068 0 2.236068
z
" style="stroke: #6c757d; stroke-opacity: 0.95"/>
    </defs>
    <g clip-path="url(#p7ba2018061)">
     <use xlink:href="#m0b5f1a5893" x="225.533902" y="221.380782" style="fill: #ffffff; fill-opacity: 0.95; stroke: #6c757d; stroke-opacity: 0.95"/>
     <use xlink:href="#m0b5f1a5893" x="232.18789" y="222.150836" style="fill: #ffffff; fill-opacity: 0.95; stroke: #6c757d; stroke-opacity: 0.95"/>
     <use xlink:href="#m0b5f1a5893" x="225.279243" y="221.462211" style="fill: #ffffff; fill-opacity: 0.95; stroke: #6c757d; stroke-opacity: 0.95"/>
     <use xlink:href="#m0b5f1a5893" x="226.085223" y="221.169183" style="fill: #ffffff; fill-opacity: 0.95; stroke: #6c757d; stroke-opacity: 0.95"/>
     <use xlink:href="#m0b5f1a5893" x="232.153835" y="221.987239" style="fill: #ffffff; fill-opacity: 0.95; stroke: #6c757d; stroke-opacity: 0.95"/>
     <use xlink:href="#m0b5f1a5893" x="222.945094" y="221.840518" style="fill: #ffffff; fill-opacity: 0.95; stroke: #6c757d; stroke-opacity: 0.95"/>
     <use xlink:href="#m0b5f1a5893" x="224.33505" y="221.263045" style="fill: #ffffff; fill-opacity: 0.95; stroke: #6c757d; stroke-opacity: 0.95"/>
     <use xlink:href="#m0b5f1a5893" x="230.763361" y="221.840835" style="fill: #ffffff; fill-opacity: 0.95; stroke: #6c757d; stroke-opacity: 0.95"/>
     <use xlink:href="#m0b5f1a5893" x="226.65796" y="220.937033" style="fill: #ffffff; fill-opacity: 0.95; stroke: #6c757d; stroke-opacity: 0.95"/>
     <use xlink:href="#m0b5f1a5893" x="228.736993" y="219.654858" style="fill: #ffffff; fill-opacity: 0.95; stroke: #6c757d; stroke-opacity: 0.95"/>
    </g>
   </g>
   <g id="PathCollection_2">
    <defs>
     <path id="mc20501be1d" d="M 0 2.236068
C 0.593012 2.236068 1.161816 2.000462 1.581139 1.581139
C 2.000462 1.161816 2.236068 0.593012 2.236068 0
C 2.236068 -0.593012 2.000462 -1.161816 1.581139 -1.581139
C 1.161816 -2.000462 0.593012 -2.236068 0 -2.236068
C -0.593012 -2.236068 -1.161816 -2.000462 -1.581139 -1.581139
C -2.000462 -1.161816 -2.236068 -0.593012 -2.236068 0
C -2.236068 0.593012 -2.000462 1.161816 -1.581139 1.581139
C -1.161816 2.000462 -0.593012 2.236068 0 2.236068
z
" style="stroke: #3b6fb6; stroke-opacity: 0.95"/>
    </defs>
    <g clip-path="url(#p7ba2018061)">
     <use xlink:href="#mc20501be1d" x="289.373366" y="184.450215" style="fill: #ffffff; fill-opacity: 0.95; stroke: #3b6fb6; stroke-opacity: 0.95"/>
     <use xlink:href="#mc20501be1d" x="297.744298" y="186.914524" style="fill: #ffffff; fill-opacity: 0.95; stroke: #3b6fb6; stroke-opacity: 0.95"/>
     <use xlink:href="#mc20501be1d" x="290.470253" y="185.703306" style="fill: #ffffff; fill-opacity: 0.95; stroke: #3b6fb6; stroke-opacity: 0.95"/>
     <use xlink:href="#mc20501be1d" x="297.269752" y="183.355256" style="fill: #ffffff; fill-opacity: 0.95; stroke: #3b6fb6; stroke-opacity: 0.95"/>
     <use xlink:href="#mc20501be1d" x="294.18783" y="186.017852" style="fill: #ffffff; fill-opacity: 0.95; stroke: #3b6fb6; stroke-opacity: 0.95"/>
     <use xlink:href="#mc20501be1d" x="290.887086" y="185.191013" style="fill: #ffffff; fill-opacity: 0.95; stroke: #3b6fb6; stroke-opacity: 0.95"/>
     <use xlink:href="#mc20501be1d" x="298.019775" y="183.769147" style="fill: #ffffff; fill-opacity: 0.95; stroke: #3b6fb6; stroke-opacity: 0.95"/>
     <use xlink:href="#mc20501be1d" x="297.071043" y="185.651698" style="fill: #ffffff; fill-opacity: 0.95; stroke: #3b6fb6; stroke-opacity: 0.95"/>
     <use xlink:href="#mc20501be1d" x="287.494433" y="185.174165" style="fill: #ffffff; fill-opacity: 0.95; stroke: #3b6fb6; stroke-opacity: 0.95"/>
     <use xlink:href="#mc20501be1d" x="290.449635" y="184.762624" style="fill: #ffffff; fill-opacity: 0.95; stroke: #3b6fb6; stroke-opacity: 0.95"/>
    </g>
   </g>
   <g id="PathCollection_3">
    <defs>
     <path id="me61442dfed" d="M 0 2.236068
C 0.593012 2.236068 1.161816 2.000462 1.581139 1.581139
C 2.000462 1.161816 2.236068 0.593012 2.236068 0
C 2.236068 -0.593012 2.000462 -1.161816 1.581139 -1.581139
C 1.161816 -2.000462 0.593012 -2.236068 0 -2.236068
C -0.593012 -2.236068 -1.161816 -2.000462 -1.581139 -1.581139
C -2.000462 -1.161816 -2.236068 -0.593012 -2.236068 0
C -2.236068 0.593012 -2.000462 1.161816 -1.581139 1.581139
C -1.161816 2.000462 -0.593012 2.236068 0 2.236068
z
" style="stroke: #2a9d8f; stroke-opacity: 0.95"/>
    </defs>
    <g clip-path="url(#p7ba2018061)">
     <use xlink:href="#me61442dfed" x="355.553638" y="50.025081" style="fill: #ffffff; fill-opacity: 0.95; stroke: #2a9d8f; stroke-opacity: 0.95"/>
     <use xlink:href="#me61442dfed" x="357.200289" y="36.878428" style="fill: #ffffff; fill-opacity: 0.95; stroke: #2a9d8f; stroke-opacity: 0.95"/>
     <use xlink:href="#me61442dfed" x="355.569669" y="50.401975" style="fill: #ffffff; fill-opacity: 0.95; stroke: #2a9d8f; stroke-opacity: 0.95"/>
     <use xlink:href="#me61442dfed" x="358.348598" y="48.755712" style="fill: #ffffff; fill-opacity: 0.95; stroke: #2a9d8f; stroke-opacity: 0.95"/>
     <use xlink:href="#me61442dfed" x="356.709477" y="50.317341" style="fill: #ffffff; fill-opacity: 0.95; stroke: #2a9d8f; stroke-opacity: 0.95"/>
     <use xlink:href="#me61442dfed" x="356.393734" y="47.908197" style="fill: #ffffff; fill-opacity: 0.95; stroke: #2a9d8f; stroke-opacity: 0.95"/>
     <use xlink:href="#me61442dfed" x="352.550577" y="47.499771" style="fill: #ffffff; fill-opacity: 0.95; stroke: #2a9d8f; stroke-opacity: 0.95"/>
     <use xlink:href="#me61442dfed" x="357.428179" y="41.449929" style="fill: #ffffff; fill-opacity: 0.95; stroke: #2a9d8f; stroke-opacity: 0.95"/>
     <use xlink:href="#me61442dfed" x="353.353852" y="49.079326" style="fill: #ffffff; fill-opacity: 0.95; stroke: #2a9d8f; stroke-opacity: 0.95"/>
     <use xlink:href="#me61442dfed" x="353.587815" y="50.890699" style="fill: #ffffff; fill-opacity: 0.95; stroke: #2a9d8f; stroke-opacity: 0.95"/>
    </g>
   </g>
   <g id="PathCollection_4">
    <defs>
     <path id="mafe4994ab5" d="M 0 2.236068
C 0.593012 2.236068 1.161816 2.000462 1.581139 1.581139
C 2.000462 1.161816 2.236068 0.593012 2.236068 0
C 2.236068 -0.593012 2.000462 -1.161816 1.581139 -1.581139
C 1.161816 -2.000462 0.593012 -2.236068 0 -2.236068
C -0.593012 -2.236068 -1.161816 -2.000462 -1.581139 -1.581139
C -2.000462 -1.161816 -2.236068 -0.593012 -2.236068 0
C -2.236068 0.593012 -2.000462 1.161816 -1.581139 1.581139
C -1.161816 2.000462 -0.593012 2.236068 0 2.236068
z
" style="stroke: #17766e; stroke-opacity: 0.95"/>
    </defs>
    <g clip-path="url(#p7ba2018061)">
     <use xlink:href="#mafe4994ab5" x="426.795161" y="59.415647" style="fill: #ffffff; fill-opacity: 0.95; stroke: #17766e; stroke-opacity: 0.95"/>
     <use xlink:href="#mafe4994ab5" x="419.269364" y="53.85183" style="fill: #ffffff; fill-opacity: 0.95; stroke: #17766e; stroke-opacity: 0.95"/>
     <use xlink:href="#mafe4994ab5" x="424.697099" y="59.524946" style="fill: #ffffff; fill-opacity: 0.95; stroke: #17766e; stroke-opacity: 0.95"/>
     <use xlink:href="#mafe4994ab5" x="426.7215" y="57.239416" style="fill: #ffffff; fill-opacity: 0.95; stroke: #17766e; stroke-opacity: 0.95"/>
     <use xlink:href="#mafe4994ab5" x="423.680319" y="54.345888" style="fill: #ffffff; fill-opacity: 0.95; stroke: #17766e; stroke-opacity: 0.95"/>
     <use xlink:href="#mafe4994ab5" x="422.379472" y="54.89153" style="fill: #ffffff; fill-opacity: 0.95; stroke: #17766e; stroke-opacity: 0.95"/>
     <use xlink:href="#mafe4994ab5" x="419.020744" y="61.590242" style="fill: #ffffff; fill-opacity: 0.95; stroke: #17766e; stroke-opacity: 0.95"/>
     <use xlink:href="#mafe4994ab5" x="423.101136" y="53.248186" style="fill: #ffffff; fill-opacity: 0.95; stroke: #17766e; stroke-opacity: 0.95"/>
     <use xlink:href="#mafe4994ab5" x="418.082655" y="57.784885" style="fill: #ffffff; fill-opacity: 0.95; stroke: #17766e; stroke-opacity: 0.95"/>
     <use xlink:href="#mafe4994ab5" x="417.160945" y="56.819223" style="fill: #ffffff; fill-opacity: 0.95; stroke: #17766e; stroke-opacity: 0.95"/>
    </g>
   </g>
   <g id="text_16">
    <text style="fill: #5f6b73; font: 700 7.3px 'Microsoft YaHei', 'Arial', 'DejaVu Sans', sans-serif; text-anchor: middle" x="168.897644" y="13.035438" transform="rotate(-0 168.897644 13.035438)">数据集历史表现</text>
   </g>
   <g id="text_17">
    <text style="fill: #2a6f69; font: 700 7.3px 'Microsoft YaHei', 'Arial', 'DejaVu Sans', sans-serif; text-anchor: middle" x="345.672044" y="13.035438" transform="rotate(-0 345.672044 13.035438)">NeoRL 仿真验证</text>
   </g>
   <g id="text_18">
    <text style="font: 700 9px 'Microsoft YaHei', 'Arial', 'DejaVu Sans', sans-serif; text-anchor: start" x="56.404844" y="15.502972" transform="rotate(-0 56.404844 15.502972)">最终长期控制效果</text>
   </g>
   <g id="LineCollection_1">
    <path d="M 228.124844 222.048603
L 228.124844 220.688706
" clip-path="url(#p7ba2018061)" style="fill: none; stroke: #6c757d; stroke-width: 1.2"/>
   </g>
   <g id="line2d_30">
    <defs>
     <path id="m34ab82afc1" d="M 3 0
L -3 -0
" style="stroke: #6c757d"/>
    </defs>
    <g clip-path="url(#p7ba2018061)">
     <use xlink:href="#m34ab82afc1" x="228.124844" y="222.048603" style="fill: #6c757d; stroke: #6c757d"/>
    </g>
   </g>
   <g id="line2d_31">
    <g clip-path="url(#p7ba2018061)">
     <use xlink:href="#m34ab82afc1" x="228.124844" y="220.688706" style="fill: #6c757d; stroke: #6c757d"/>
    </g>
   </g>
   <g id="LineCollection_2">
    <path d="M 292.924844 186.107365
L 292.924844 184.090594
" clip-path="url(#p7ba2018061)" style="fill: none; stroke: #3b6fb6; stroke-width: 1.2"/>
   </g>
   <g id="line2d_32">
    <defs>
     <path id="m4996761474" d="M 3 0
L -3 -0
" style="stroke: #3b6fb6"/>
    </defs>
    <g clip-path="url(#p7ba2018061)">
     <use xlink:href="#m4996761474" x="292.924844" y="186.107365" style="fill: #3b6fb6; stroke: #3b6fb6"/>
    </g>
   </g>
   <g id="line2d_33">
    <g clip-path="url(#p7ba2018061)">
     <use xlink:href="#m4996761474" x="292.924844" y="184.090594" style="fill: #3b6fb6; stroke: #3b6fb6"/>
    </g>
   </g>
   <g id="LineCollection_3">
    <path d="M 357.724844 51.651569
L 357.724844 42.989723
" clip-path="url(#p7ba2018061)" style="fill: none; stroke: #2a9d8f; stroke-width: 1.2"/>
   </g>
   <g id="line2d_34">
    <defs>
     <path id="ma6219b4a61" d="M 3 0
L -3 -0
" style="stroke: #2a9d8f"/>
    </defs>
    <g clip-path="url(#p7ba2018061)">
     <use xlink:href="#ma6219b4a61" x="357.724844" y="51.651569" style="fill: #2a9d8f; stroke: #2a9d8f"/>
    </g>
   </g>
   <g id="line2d_35">
    <g clip-path="url(#p7ba2018061)">
     <use xlink:href="#ma6219b4a61" x="357.724844" y="42.989723" style="fill: #2a9d8f; stroke: #2a9d8f"/>
    </g>
   </g>
   <g id="LineCollection_4">
    <path d="M 422.524844 59.503634
L 422.524844 54.238725
" clip-path="url(#p7ba2018061)" style="fill: none; stroke: #17766e; stroke-width: 1.2"/>
   </g>
   <g id="line2d_36">
    <defs>
     <path id="mf63584e565" d="M 3 0
L -3 -0
" style="stroke: #17766e"/>
    </defs>
    <g clip-path="url(#p7ba2018061)">
     <use xlink:href="#mf63584e565" x="422.524844" y="59.503634" style="fill: #17766e; stroke: #17766e"/>
    </g>
   </g>
   <g id="line2d_37">
    <g clip-path="url(#p7ba2018061)">
     <use xlink:href="#mf63584e565" x="422.524844" y="54.238725" style="fill: #17766e; stroke: #17766e"/>
    </g>
   </g>
   <g id="line2d_38">
    <defs>
     <path id="m0e8d6448fe" d="M 0 2.5
C 0.663008 2.5 1.29895 2.236584 1.767767 1.767767
C 2.236584 1.29895 2.5 0.663008 2.5 0
C 2.5 -0.663008 2.236584 -1.29895 1.767767 -1.767767
C 1.29895 -2.236584 0.663008 -2.5 0 -2.5
C -0.663008 -2.5 -1.29895 -2.236584 -1.767767 -1.767767
C -2.236584 -1.29895 -2.5 -0.663008 -2.5 0
C -2.5 0.663008 -2.236584 1.29895 -1.767767 1.767767
C -1.29895 2.236584 -0.663008 2.5 0 2.5
z
" style="stroke: #6c757d"/>
    </defs>
    <g clip-path="url(#p7ba2018061)">
     <use xlink:href="#m0e8d6448fe" x="228.124844" y="221.368654" style="fill: #6c757d; stroke: #6c757d"/>
    </g>
   </g>
   <g id="line2d_39">
    <defs>
     <path id="me3796a7a49" d="M 0 2.5
C 0.663008 2.5 1.29895 2.236584 1.767767 1.767767
C 2.236584 1.29895 2.5 0.663008 2.5 0
C 2.5 -0.663008 2.236584 -1.29895 1.767767 -1.767767
C 1.29895 -2.236584 0.663008 -2.5 0 -2.5
C -0.663008 -2.5 -1.29895 -2.236584 -1.767767 -1.767767
C -2.236584 -1.29895 -2.5 -0.663008 -2.5 0
C -2.5 0.663008 -2.236584 1.29895 -1.767767 1.767767
C -1.29895 2.236584 -0.663008 2.5 0 2.5
z
" style="stroke: #3b6fb6"/>
    </defs>
    <g clip-path="url(#p7ba2018061)">
     <use xlink:href="#me3796a7a49" x="292.924844" y="185.09898" style="fill: #3b6fb6; stroke: #3b6fb6"/>
    </g>
   </g>
   <g id="line2d_40">
    <defs>
     <path id="ma180ea5398" d="M 0 2.5
C 0.663008 2.5 1.29895 2.236584 1.767767 1.767767
C 2.236584 1.29895 2.5 0.663008 2.5 0
C 2.5 -0.663008 2.236584 -1.29895 1.767767 -1.767767
C 1.29895 -2.236584 0.663008 -2.5 0 -2.5
C -0.663008 -2.5 -1.29895 -2.236584 -1.767767 -1.767767
C -2.236584 -1.29895 -2.5 -0.663008 -2.5 0
C -2.5 0.663008 -2.236584 1.29895 -1.767767 1.767767
C -1.29895 2.236584 -0.663008 2.5 0 2.5
z
" style="stroke: #2a9d8f"/>
    </defs>
    <g clip-path="url(#p7ba2018061)">
     <use xlink:href="#ma180ea5398" x="357.724844" y="47.320646" style="fill: #2a9d8f; stroke: #2a9d8f"/>
    </g>
   </g>
   <g id="line2d_41">
    <defs>
     <path id="m5aae48de1c" d="M 0 2.5
C 0.663008 2.5 1.29895 2.236584 1.767767 1.767767
C 2.236584 1.29895 2.5 0.663008 2.5 0
C 2.5 -0.663008 2.236584 -1.29895 1.767767 -1.767767
C 1.29895 -2.236584 0.663008 -2.5 0 -2.5
C -0.663008 -2.5 -1.29895 -2.236584 -1.767767 -1.767767
C -2.236584 -1.29895 -2.5 -0.663008 -2.5 0
C -2.5 0.663008 -2.236584 1.29895 -1.767767 1.767767
C -1.29895 2.236584 -0.663008 2.5 0 2.5
z
" style="stroke: #17766e"/>
    </defs>
    <g clip-path="url(#p7ba2018061)">
     <use xlink:href="#m5aae48de1c" x="422.524844" y="56.871179" style="fill: #17766e; stroke: #17766e"/>
    </g>
   </g>
  </g>
 </g>
 <defs>
  <clipPath id="p7ba2018061">
   <rect x="56.404844" y="21.502972" width="401.76" height="221.76"/>
  </clipPath>
 </defs>
</svg>
